<svg id="Capa_1" enable-background="new 0 0 512 512" height="512" viewBox="0 0 512 512" width="512" xmlns="http://www.w3.org/2000/svg">
<g id="Line_cutting_stoke_Expand">
<g>
<path d="m464 376h-48v16h56c4.418 0 8-3.582 8-8v-40h-16z"/>
<path d="m384 376h16v16h-16z"/><path d="m464 312h16v16h-16z"/>
<path d="m48 120h16v-16h-24c-4.418 0-8 3.582-8 8v56h16z"/>
<path d="m80 104h16v16h-16z"/><path d="m32 184h16v16h-16z"/>
<path d="m480 240h-96v16h96v24h-96v16h104c4.418 0 8-3.582 8-8v-176h-16z"/>
<path d="m478 32h-348c-9.936.012-17.988 8.064-18 18v150h16v-150c0-1.105.895-2 2-2h348c1.105 0 2 .895 2 2v46h16v-46c-.012-9.936-8.064-17.988-18-18z"/>
<path d="m472 96v-24c0-4.418-3.582-8-8-8h-24v16h16v16z"/>
<path d="m48 234c0-1.105.895-2 2-2h300c1.105 0 2 .895 2 2v174h16v-174c-.012-9.936-8.064-17.988-18-18h-300c-9.936.012-17.988 8.064-18 18v174h16z"/>
<path d="m376 424h-128c-1.242 0-2.467.289-3.578.845l-14.311 7.155h-60.222l-14.311-7.155c-1.111-.556-2.336-.845-3.578-.845h-80v16h78.111l14.311 7.155c1.111.556 2.336.845 3.578.845h64c1.242 0 2.467-.289 3.578-.845l14.311-7.155h118.111v12c-.007 6.624-5.376 11.993-12 12h-312c-6.624-.007-11.993-5.376-12-12v-12h24v-16h-32c-4.418 0-8 3.582-8 8v20c.018 15.457 12.543 27.982 28 28h312c15.457-.018 27.982-12.543 28-28v-20c0-4.418-3.582-8-8-8z"/>
<path d="m344 408v-160c0-4.418-3.582-8-8-8h-48v16h40v152z"/>
<path d="m272 240h-208c-4.418 0-8 3.582-8 8v160h16v-152h200z"/>
<path d="m320 304v-24c0-4.418-3.582-8-8-8h-24v16h16v16z"/>
<path d="m80 376v24c0 4.418 3.582 8 8 8h24v-16h-16v-16z"/>
</g>
</g>
</svg>